<mxfile host="Electron" agent="Mozilla/5.0 (X11; Linux x86_64) AppleWebKit/537.36 (KHTML, like Gecko) draw.io/28.1.2 Chrome/138.0.7204.243 Electron/37.4.0 Safari/537.36" version="28.1.2">
  <diagram name="Page-1" id="ugcFM9hPruxLYtTJf22b">
    <mxGraphModel dx="706" dy="347" grid="1" gridSize="10" guides="1" tooltips="1" connect="1" arrows="1" fold="1" page="1" pageScale="1" pageWidth="850" pageHeight="1100" math="0" shadow="0">
      <root>
        <mxCell id="0" />
        <mxCell id="1" parent="0" />
        <mxCell id="-lc79xcHFzIFe-3SOnGE-1" value="Filename" style="rounded=0;whiteSpace=wrap;html=1;" vertex="1" parent="1">
          <mxGeometry x="130" y="210" width="400" height="40" as="geometry" />
        </mxCell>
        <mxCell id="-lc79xcHFzIFe-3SOnGE-24" style="edgeStyle=orthogonalEdgeStyle;rounded=0;orthogonalLoop=1;jettySize=auto;html=1;entryX=0;entryY=0;entryDx=0;entryDy=0;" edge="1" parent="1" source="-lc79xcHFzIFe-3SOnGE-2" target="-lc79xcHFzIFe-3SOnGE-19">
          <mxGeometry relative="1" as="geometry" />
        </mxCell>
        <mxCell id="-lc79xcHFzIFe-3SOnGE-2" value="Header de UDP" style="rounded=0;whiteSpace=wrap;html=1;" vertex="1" parent="1">
          <mxGeometry x="130" y="290" width="400" height="40" as="geometry" />
        </mxCell>
        <mxCell id="-lc79xcHFzIFe-3SOnGE-5" value="ACK number" style="rounded=0;whiteSpace=wrap;html=1;" vertex="1" parent="1">
          <mxGeometry x="130" y="170" width="400" height="40" as="geometry" />
        </mxCell>
        <mxCell id="-lc79xcHFzIFe-3SOnGE-6" value="Type" style="rounded=0;whiteSpace=wrap;html=1;" vertex="1" parent="1">
          <mxGeometry x="130" y="130" width="50" height="40" as="geometry" />
        </mxCell>
        <mxCell id="-lc79xcHFzIFe-3SOnGE-7" value="upload or download" style="text;html=1;align=center;verticalAlign=middle;resizable=0;points=[];autosize=1;strokeColor=none;fillColor=none;" vertex="1" parent="1">
          <mxGeometry x="540" y="135" width="140" height="30" as="geometry" />
        </mxCell>
        <mxCell id="-lc79xcHFzIFe-3SOnGE-8" value="un numero para indicar el paquete" style="text;html=1;align=center;verticalAlign=middle;resizable=0;points=[];autosize=1;strokeColor=none;fillColor=none;" vertex="1" parent="1">
          <mxGeometry x="540" y="175" width="230" height="30" as="geometry" />
        </mxCell>
        <mxCell id="-lc79xcHFzIFe-3SOnGE-9" value="nombre del archivo" style="text;html=1;align=center;verticalAlign=middle;resizable=0;points=[];autosize=1;strokeColor=none;fillColor=none;" vertex="1" parent="1">
          <mxGeometry x="540" y="215" width="140" height="30" as="geometry" />
        </mxCell>
        <mxCell id="-lc79xcHFzIFe-3SOnGE-10" value="Header del UDP" style="text;html=1;align=center;verticalAlign=middle;resizable=0;points=[];autosize=1;strokeColor=none;fillColor=none;" vertex="1" parent="1">
          <mxGeometry x="540" y="295" width="120" height="30" as="geometry" />
        </mxCell>
        <mxCell id="-lc79xcHFzIFe-3SOnGE-11" value="size file" style="rounded=0;whiteSpace=wrap;html=1;" vertex="1" parent="1">
          <mxGeometry x="130" y="250" width="400" height="40" as="geometry" />
        </mxCell>
        <mxCell id="-lc79xcHFzIFe-3SOnGE-12" value="cantidad de bytes del archivo" style="text;html=1;align=center;verticalAlign=middle;resizable=0;points=[];autosize=1;strokeColor=none;fillColor=none;" vertex="1" parent="1">
          <mxGeometry x="540" y="255" width="200" height="30" as="geometry" />
        </mxCell>
        <mxCell id="-lc79xcHFzIFe-3SOnGE-13" value="ACK" style="rounded=0;whiteSpace=wrap;html=1;" vertex="1" parent="1">
          <mxGeometry x="180" y="130" width="50" height="40" as="geometry" />
        </mxCell>
        <mxCell id="-lc79xcHFzIFe-3SOnGE-14" value="SYN" style="rounded=0;whiteSpace=wrap;html=1;" vertex="1" parent="1">
          <mxGeometry x="230" y="130" width="40" height="40" as="geometry" />
        </mxCell>
        <mxCell id="-lc79xcHFzIFe-3SOnGE-15" value="FIN" style="rounded=0;whiteSpace=wrap;html=1;" vertex="1" parent="1">
          <mxGeometry x="270" y="130" width="40" height="40" as="geometry" />
        </mxCell>
        <mxCell id="-lc79xcHFzIFe-3SOnGE-18" value="source port" style="rounded=0;whiteSpace=wrap;html=1;" vertex="1" parent="1">
          <mxGeometry x="210" y="380" width="120" height="30" as="geometry" />
        </mxCell>
        <mxCell id="-lc79xcHFzIFe-3SOnGE-19" value="destine port" style="rounded=0;whiteSpace=wrap;html=1;" vertex="1" parent="1">
          <mxGeometry x="330" y="380" width="120" height="30" as="geometry" />
        </mxCell>
        <mxCell id="-lc79xcHFzIFe-3SOnGE-20" value="length" style="rounded=0;whiteSpace=wrap;html=1;" vertex="1" parent="1">
          <mxGeometry x="210" y="410" width="120" height="30" as="geometry" />
        </mxCell>
        <mxCell id="-lc79xcHFzIFe-3SOnGE-21" value="checksum" style="rounded=0;whiteSpace=wrap;html=1;" vertex="1" parent="1">
          <mxGeometry x="330" y="410" width="120" height="30" as="geometry" />
        </mxCell>
        <mxCell id="-lc79xcHFzIFe-3SOnGE-22" value="data" style="rounded=0;whiteSpace=wrap;html=1;" vertex="1" parent="1">
          <mxGeometry x="210" y="440" width="240" height="30" as="geometry" />
        </mxCell>
        <mxCell id="-lc79xcHFzIFe-3SOnGE-23" value=".&lt;br&gt;.&lt;br&gt;." style="text;html=1;align=center;verticalAlign=middle;resizable=0;points=[];autosize=1;strokeColor=none;fillColor=none;fontSize=21;" vertex="1" parent="1">
          <mxGeometry x="315" y="480" width="30" height="90" as="geometry" />
        </mxCell>
      </root>
    </mxGraphModel>
  </diagram>
</mxfile>
